<svg width="22" height="21" fill="none" xmlns="http://www.w3.org/2000/svg"><path d="M2.653.551c-.606.081-1.088.274-1.512.606-.476.372-.85.938-.995 1.503-.139.544-.151 1.059-.136 5.7.016 4.836.009 4.677.22 5.252.26.709.906 1.371 1.599 1.637.153.059.341.119.417.134.075.014.137.03.137.035 0 .005-.041.103-.092.218-.172.39-.242.71-.264 1.214-.022.512.027.867.181 1.317a3.482 3.482 0 0 0 2.146 2.131c.795.271 1.497.271 2.292 0a3.21 3.21 0 0 0 1.295-.81 3.4 3.4 0 0 0 .954-1.668c.055-.214.07-.4.068-.843-.002-.601-.039-.813-.219-1.256l-.086-.211h4.686l-.074.173c-.155.362-.222.682-.243 1.167-.022.512.027.867.181 1.317a3.482 3.482 0 0 0 2.146 2.131c.795.271 1.497.271 2.292 0a3.21 3.21 0 0 0 1.295-.81 3.4 3.4 0 0 0 .954-1.668c.055-.214.07-.4.068-.843-.002-.599-.039-.813-.217-1.251l-.084-.207.335-.026c.427-.032.608-.075.903-.215.322-.153.714-.545.868-.868.213-.447.214-.453.214-2.732 0-2.055-.002-2.094-.082-2.348a2.24 2.24 0 0 0-.225-.477c-.19-.289-2.858-2.941-3.095-3.078-.391-.223-.543-.249-1.609-.266l-.977-.017-.018-1.197c-.02-1.278-.046-1.514-.222-1.948-.152-.377-.323-.628-.648-.953-.435-.436-.847-.664-1.44-.798-.237-.054-.81-.061-5.526-.067C5.246.525 2.777.535 2.653.551m10.709 2.011c.185.062.514.391.576.576.038.115.05 1.166.06 5.249l.011 5.106H8.476c-3.491 0-5.603-.013-5.724-.036a.93.93 0 0 1-.703-.664c-.031-.118-.047-1.26-.058-4.231-.016-4.217.006-5.303.111-5.506.165-.32.406-.479.791-.525.133-.016 2.511-.026 5.284-.023 4.041.005 5.07.016 5.185.054m5.458 6.157 1.2 1.202v1.616c0 .889-.01 1.693-.023 1.786l-.024.17h-3.986V7.517h1.633l1.2 1.202M5.919 15.565c.725.22 1.184.953 1.058 1.688a1.502 1.502 0 0 1-1.686 1.238 1.452 1.452 0 0 1-.841-.422c-.811-.79-.468-2.159.626-2.505.206-.065.626-.064.843.001m11 0c.725.22 1.184.953 1.058 1.688a1.502 1.502 0 0 1-1.686 1.238 1.452 1.452 0 0 1-.841-.422c-.811-.79-.468-2.159.626-2.505.206-.065.626-.064.843.001" fill-rule="evenodd" fill="#000"/></svg>