<svg width="23" height="22" fill="none" xmlns="http://www.w3.org/2000/svg"><path d="M12.42.039c-4.028.276-7.438 3.25-8.219 7.168a8.29 8.29 0 0 0-.176 1.796v.574l-.29.156C2.079 10.626.93 12.102.483 13.908c-.294 1.191-.259 2.369.108 3.61l.097.326-.346 1.568c-.272 1.236-.34 1.603-.32 1.734.038.253.234.547.454.683.295.182.516.176 2.288-.07l1.518-.21.36.114c.673.213 1.033.271 1.797.292 1.138.032 1.876-.117 2.883-.579 1.269-.582 2.459-1.795 3.06-3.12l.126-.278h.56c1.01 0 1.961-.155 2.914-.476l.49-.165 1.663.244c2.253.33 2.286.334 2.55.285.458-.085.85-.376 1.061-.788.192-.376.186-.584-.084-2.766l-.233-1.885.19-.569a8.99 8.99 0 0 0 .285-4.651 9.093 9.093 0 0 0-1.588-3.546A9.066 9.066 0 0 0 12.42.039m1.55 2.012a7.027 7.027 0 0 1 4.076 2.007c1.581 1.581 2.307 3.737 1.998 5.928a7.484 7.484 0 0 1-.364 1.438c-.259.747-.26.838-.017 2.793.108.873.189 1.594.18 1.603-.009.009-.73-.09-1.602-.219-1.923-.286-1.978-.286-2.754-.019-.767.263-1.716.436-2.417.441h-.097l-.002-.527a6.532 6.532 0 0 0-.623-2.814c-.644-1.405-1.974-2.661-3.397-3.21-.845-.326-1.415-.433-2.329-.436l-.642-.003v-.142c0-.263.08-.933.155-1.307a6.434 6.434 0 0 1 .517-1.523c.404-.841.779-1.375 1.407-2.003a7.066 7.066 0 0 1 5.911-2.007m-6.598 9.008c2.088.364 3.63 2.253 3.63 4.447a4.479 4.479 0 0 1-1.323 3.221c-1.189 1.2-2.886 1.586-4.513 1.028-.571-.195-.838-.203-1.909-.056-.475.066-.891.119-.923.119-.05 0-.03-.135.124-.833.235-1.062.241-1.275.054-1.917-.182-.626-.25-1.054-.25-1.562a4.54 4.54 0 0 1 2.323-3.99 5.043 5.043 0 0 1 1.275-.455 5.43 5.43 0 0 1 1.512-.002" fill-rule="evenodd" fill="#000"/></svg>