<svg width="24" height="24" fill="none" xmlns="http://www.w3.org/2000/svg"><path d="M11.002.042C6.765.42 3.066 2.953 1.22 6.74.637 7.935.273 9.163.074 10.6c-.07.505-.07 2.295 0 2.8.199 1.437.563 2.665 1.146 3.86a12.017 12.017 0 0 0 8.496 6.516c.923.178 1.217.203 2.324.201.869-.002 1.158-.018 1.601-.087 2.875-.445 5.265-1.702 7.186-3.778 1.649-1.783 2.669-3.937 3.064-6.471.122-.784.122-2.498 0-3.282-.395-2.535-1.415-4.688-3.066-6.472C18.875 1.779 16.36.479 13.5.1c-.585-.077-1.928-.108-2.498-.058M13.3 1.864c1.759.215 3.417.891 4.88 1.989.176.132.385.298.465.369l.146.13-.178.226c-.408.52-1.18 1.219-1.958 1.773a12.46 12.46 0 0 1-1.735 1.032c-.546.274-1.477.677-1.498.65l-.5-.871A59.292 59.292 0 0 0 9.926 2.5c-.272-.377-.307-.444-.246-.467.039-.015.297-.065.574-.112a10.866 10.866 0 0 1 3.046-.057M8.148 3.45a65.435 65.435 0 0 1 1.92 2.91c.658 1.054 1.332 2.2 1.332 2.267 0 .027-.283.115-.681.211-2.567.621-5.58 1.015-8.039 1.052l-.7.01.014-.096c.007-.053.073-.314.146-.58.32-1.167.907-2.346 1.695-3.402.592-.795 1.771-1.883 2.645-2.443.343-.219 1.079-.617 1.143-.618.023-.001.259.31.525.689m12.025 2.403a11.287 11.287 0 0 1 1.446 2.641c.315.854.543 1.972.603 2.952l.028.467-.295-.057a33.14 33.14 0 0 0-2.435-.321c-.929-.085-3.08-.089-3.876-.008l-.535.056-.058-.142c-.192-.47-.407-.96-.602-1.372-.131-.278-.207-.486-.186-.505.021-.019.217-.112.437-.207a15.795 15.795 0 0 0 3.478-2.095c.471-.377 1.293-1.166 1.545-1.481.097-.122.188-.221.203-.221.015 0 .126.132.247.293m-7.824 4.537c.115.205.731 1.526.731 1.567 0 .019-.158.082-.35.142-.878.273-1.971.775-2.901 1.333-1.917 1.15-3.809 2.97-5.152 4.956l-.304.449-.14-.149c-.689-.733-1.54-2.213-1.926-3.348a9.528 9.528 0 0 1-.535-2.922l-.023-.682 1.255-.048c2.4-.092 4.404-.324 6.496-.753a35.15 35.15 0 0 0 2.4-.588c.176-.054.33-.1.343-.102.012-.003.06.063.106.145m7.231 2.747a18.03 18.03 0 0 1 2.064.376l.416.108-.01.202a5.786 5.786 0 0 1-.147.741c-.556 2.208-1.921 4.25-3.759 5.622-.218.162-.404.288-.413.279-.009-.01-.088-.375-.176-.811-.333-1.659-.948-3.899-1.547-5.64l-.278-.806.112-.022c.062-.013.307-.042.545-.065l.593-.057c.355-.035 2.112.015 2.6.073m-5.509 1.193a44.802 44.802 0 0 1 1.768 6.228c.088.439.161.816.161.839 0 .055-.189.134-.82.343a9.549 9.549 0 0 1-3.16.502c-1.262.002-2.207-.155-3.401-.562-.856-.293-2.168-.998-2.815-1.513l-.096-.076.132-.236c.073-.129.268-.433.432-.675 1.268-1.864 3.194-3.495 5.468-4.629.633-.316 1.906-.855 2.046-.867.025-.002.154.289.285.646" fill="#7CD4FD" fill-rule="evenodd"/></svg>