<svg width="25.000000" height="25.000000" viewBox="0 0 25 25" fill="none" xmlns="http://www.w3.org/2000/svg" xmlns:xlink="http://www.w3.org/1999/xlink">
	<desc>
			Created with Pixso.
	</desc>
	<defs/>
	<path id="Icon" d="M12.99 16.79C12.99 16.69 13 16.59 13 16.5C13 13.46 10.59 11 7.63 11C7.6 11 7.58 11 7.56 11C7.1 11 6.66 11.06 6.24 11.18C6.19 11.19 6.14 11.21 6.09 11.22C5.77 11.32 5.46 11.45 5.16 11.61C3.44 12.52 2.26 14.37 2.26 16.5C2.26 17.11 2.36 17.69 2.53 18.24C2.61 18.47 2.65 18.59 2.66 18.67C2.67 18.75 2.68 18.8 2.67 18.88C2.67 18.96 2.65 19.05 2.61 19.23L2.46 19.91L2 22L4.11 21.71L4.99 21.59C5.15 21.56 5.24 21.55 5.31 21.55C5.38 21.55 5.42 21.56 5.5 21.57C5.57 21.59 5.67 21.62 5.88 21.7C6.43 21.89 7.01 22 7.63 22C9.77 22 11.62 20.71 12.48 18.85C12.62 18.54 12.73 18.23 12.82 17.9C12.84 17.82 12.86 17.74 12.88 17.65C12.92 17.45 12.95 17.25 12.97 17.04C12.97 17.01 12.98 16.97 12.98 16.93C12.98 16.88 12.99 16.83 12.99 16.79ZM14.15 19.99Q13.95 20.37 13.72 20.71Q13.34 21.28 12.85 21.78Q12.28 22.37 11.61 22.81Q11.09 23.15 10.51 23.4Q9.85 23.68 9.16 23.83Q8.41 24 7.63 24Q6.95 24 6.3 23.87Q5.75 23.77 5.21 23.58Q5.2 23.58 5.2 23.58L2.27 23.98Q2.09 24 1.91 23.99Q1.74 23.99 1.56 23.95Q0.75 23.77 0.31 23.07Q-0.14 22.37 0.04 21.56L0.64 18.87Q0.64 18.87 0.63 18.86Q0.48 18.39 0.39 17.9Q0.26 17.21 0.26 16.5Q0.26 15.65 0.44 14.84Q0.58 14.2 0.83 13.59Q1.12 12.89 1.53 12.28Q1.91 11.71 2.4 11.21Q2.97 10.62 3.64 10.18Q3.82 10.07 4 9.97Q4 8.89 4.22 7.86Q4.42 6.96 4.79 6.1Q5.14 5.27 5.63 4.52Q6.2 3.66 6.94 2.92Q7.66 2.21 8.48 1.67Q9.26 1.15 10.14 0.78Q10.98 0.43 11.86 0.23Q12.93 0 14.05 0Q15.17 0 16.24 0.23Q17.11 0.43 17.96 0.78Q18.84 1.15 19.62 1.67Q20.44 2.21 21.15 2.92Q21.9 3.66 22.47 4.52Q22.95 5.27 23.31 6.1Q23.67 6.96 23.87 7.86Q24.1 8.9 24.1 10Q24.1 11.01 23.9 11.98Q23.75 12.76 23.46 13.52L23.85 16.71Q23.9 17.11 23.91 17.3Q23.93 17.9 23.71 18.4Q23.7 18.42 23.69 18.45Q23.6 18.66 23.46 18.84Q23.33 19.03 23.17 19.19Q23 19.36 22.81 19.48Q22.62 19.61 22.41 19.7Q22.38 19.71 22.36 19.72Q21.85 19.92 21.26 19.89Q21.06 19.88 20.67 19.82L17.56 19.37Q16.83 19.64 16.07 19.79Q15.13 19.99 14.15 19.99ZM8.08 9.01Q8.1 8.83 8.14 8.66Q8.26 8.15 8.47 7.66Q8.67 7.19 8.94 6.77Q9.29 6.22 9.76 5.76Q10.2 5.32 10.7 4.99Q11.17 4.69 11.69 4.47Q12.16 4.27 12.65 4.15Q13.33 4 14.05 4Q14.76 4 15.44 4.15Q15.94 4.27 16.41 4.47Q16.93 4.69 17.39 4.99Q17.9 5.32 18.33 5.76Q18.8 6.22 19.15 6.77Q19.43 7.19 19.63 7.66Q19.83 8.15 19.95 8.66Q20.1 9.31 20.1 10Q20.1 10.64 19.97 11.25Q19.87 11.69 19.71 12.12Q19.64 12.3 19.62 12.37Q19.54 12.57 19.51 12.74Q19.48 12.89 19.46 13.03Q19.44 13.18 19.44 13.32Q19.43 13.54 19.48 13.93L19.48 13.93L19.69 15.64L18.06 15.4Q17.89 15.37 17.81 15.36Q17.61 15.34 17.43 15.34Q17.28 15.34 17.14 15.36Q16.98 15.37 16.83 15.4Q16.66 15.44 16.45 15.51Q16.37 15.54 16.19 15.61Q15.78 15.76 15.36 15.86Q15.17 15.9 14.97 15.93Q14.93 15.37 14.82 14.84Q14.67 14.2 14.42 13.59Q14.13 12.89 13.72 12.28Q13.34 11.71 12.85 11.21Q12.28 10.62 11.61 10.18Q11.09 9.84 10.51 9.59Q9.85 9.31 9.16 9.16Q8.63 9.04 8.08 9.01Z" fill="#FFFFFF" fill-opacity="1.000000" fill-rule="evenodd"/>
</svg>
