<svg width="24" height="24" fill="none" xmlns="http://www.w3.org/2000/svg"><path d="M11.2.025C7.677.288 4.536 1.991 2.412 4.79 1.198 6.39.443 8.216.109 10.359c-.122.784-.122 2.498 0 3.282.513 3.293 2.112 6.005 4.685 7.951 1.473 1.113 3.431 1.961 5.156 2.232l.17.026v-8.37H7.08V12h3.033l.017-1.69c.019-1.848.045-2.111.272-2.799.223-.672.522-1.163.995-1.632.916-.909 2.161-1.273 3.983-1.162.673.041 1.564.132 1.83.187l.11.022V7.88h-.876c-.99 0-1.363.05-1.696.228-.271.146-.548.424-.66.663-.192.409-.208.563-.208 1.937V12h3.326l-.022.11c-.031.155-.504 3.276-.504 3.328 0 .029-.44.042-1.4.042h-1.4v8.37l.17-.026c1.052-.166 2.447-.636 3.46-1.167 3.263-1.709 5.538-4.729 6.25-8.295.182-.912.22-1.335.219-2.402-.002-1.018-.033-1.36-.203-2.244-.666-3.467-2.843-6.464-5.962-8.209C16.509.777 15.069.307 13.5.099c-.468-.062-1.86-.106-2.3-.074" fill="#7CD4FD" fill-rule="evenodd"/></svg>