<svg width="24" height="24" fill="none" xmlns="http://www.w3.org/2000/svg"><path d="M11.2.025C7.433.306 4.1 2.246 2.002 5.38.333 7.873-.332 10.993.164 14c.592 3.584 2.805 6.722 6.018 8.533.768.433 1.932.907 2.226.907a.573.573 0 0 0 .546-.32c.093-.179.093-.183.069-1.238a29.182 29.182 0 0 0-.035-1.067.61.61 0 0 0-.169.025 7.49 7.49 0 0 1-.593.08c-1.008.102-1.946-.161-2.55-.714-.34-.311-.51-.564-.749-1.108-.316-.723-.728-1.287-1.139-1.562-.313-.209-.509-.382-.572-.504-.06-.116-.059-.127.022-.207.075-.075.13-.085.473-.084.375.001.402.007.735.169.44.214.802.56 1.163 1.11.411.628.792.941 1.363 1.121.528.167 1.189.128 1.839-.108.186-.068.234-.104.251-.189.112-.559.321-1.042.574-1.33l.162-.184-.249-.027a10.225 10.225 0 0 1-1.647-.361c-.878-.288-1.456-.623-2.035-1.18-.726-.698-1.184-1.62-1.393-2.801-.104-.591-.145-1.812-.076-2.281a4.808 4.808 0 0 1 .901-2.168l.263-.348-.086-.312c-.132-.481-.151-1.417-.04-1.959a6.25 6.25 0 0 1 .175-.66l.091-.253.339.004c.398.005.808.108 1.353.34.411.176.975.482 1.344.729l.237.16.223-.049c1.178-.26 1.778-.33 2.802-.33.874 0 1.61.073 2.34.231.264.057.525.112.581.123.074.013.205-.047.499-.232 1.026-.645 2.064-1.028 2.681-.989l.199.013.09.253c.049.139.127.436.174.66.111.542.092 1.478-.04 1.959l-.086.312.263.348a4.77 4.77 0 0 1 .903 2.197c.06.45.025 1.667-.062 2.151-.159.884-.407 1.567-.787 2.16-.237.371-.863 1.011-1.215 1.242-.76.498-1.779.844-3.007 1.02l-.327.046.174.214c.206.253.389.623.477.963.125.489.148.993.122 2.735l-.026 1.7.094.18c.183.354.494.403 1.105.175a12.039 12.039 0 0 0 4.29-2.742c1.936-1.925 3.124-4.363 3.484-7.153.07-.54.07-2.246.001-2.76-.304-2.256-1.058-4.133-2.353-5.853C19.624 2.196 16.755.53 13.5.099c-.468-.062-1.86-.106-2.3-.074" fill="#7CD4FD" fill-rule="evenodd"/></svg>