<svg width="23" height="20" fill="none" xmlns="http://www.w3.org/2000/svg"><path d="M15.806.039a.856.856 0 0 0-.498.274c-.124.131-6.626 9.219-6.955 9.722-.263.401-.352.656-.351 1.005.002.429.111.684.428.997.194.192.31.272.502.344l.249.095 2.349.012 2.349.013-.021.122c-.085.498-.827 6.225-.829 6.397a.94.94 0 0 0 .285.689c.197.201.418.275.769.257.244-.013.312-.032.453-.13.13-.09.859-1.085 3.414-4.657 1.787-2.498 3.4-4.766 3.586-5.04.404-.598.484-.814.46-1.24-.041-.707-.532-1.232-1.258-1.346-.147-.023-1.135-.039-2.424-.039-1.446-.001-2.176-.014-2.176-.04 0-.021.192-1.474.425-3.229.286-2.147.418-3.252.404-3.377-.062-.547-.612-.94-1.161-.829M2.607 3.607a.95.95 0 0 0-.455.399c-.09.137-.101.19-.101.498s.011.362.101.498a.948.948 0 0 0 .455.4c.168.076.237.078 2.885.079 2.951.001 2.83.009 3.123-.214.215-.164.326-.38.347-.675.032-.446-.166-.797-.548-.975l-.191-.09-2.722.001c-2.657 0-2.726.002-2.894.079m11.652 2.988c-.125.938-.228 1.808-.228 1.934.001.28.088.484.292.679.305.292.172.278 2.843.291 1.314.006 2.384.025 2.377.042-.033.082-3.995 5.598-4.011 5.583-.009-.01.092-.839.225-1.842.219-1.641.238-1.841.196-2.004a.978.978 0 0 0-.795-.734c-.148-.026-1.058-.041-2.481-.041h-2.248l2.015-2.82c1.108-1.551 2.021-2.814 2.029-2.806.008.008-.088.781-.214 1.718M.797 9.044a1.064 1.064 0 0 0-.613.425c-.374.607-.05 1.37.636 1.497.13.024 1.095.034 2.56.027 2.195-.01 2.362-.015 2.514-.082.204-.089.479-.39.539-.59a1.023 1.023 0 0 0-.549-1.224c-.142-.064-.331-.07-2.549-.075-1.318-.004-2.46.007-2.538.022m1.311 5.564a.93.93 0 0 0-.451.399c-.118.185-.161.613-.085.844.066.201.29.436.517.542l.192.09 2.971-.001c2.908 0 2.974-.002 3.143-.079.367-.166.543-.428.566-.84.015-.259.006-.307-.094-.497-.124-.235-.359-.437-.578-.498-.093-.025-1.171-.039-3.076-.039-2.869.001-2.936.003-3.105.079" fill-rule="evenodd" fill="#000"/></svg>