<svg width="24" height="24" fill="none" xmlns="http://www.w3.org/2000/svg"><path d="M1.331.061a1.797 1.797 0 0 0-1.08.785C-.02 1.299-.002.434.01 12.102L.02 22.66l.09.22c.184.453.554.81 1.046 1.009l.224.091h21.24l.224-.091c.492-.199.862-.556 1.046-1.009l.09-.22V1.34l-.09-.22c-.184-.453-.554-.81-1.046-1.009L22.62.02 12.08.012C3.102.006 1.509.013 1.331.061m4.527 3.32a2.06 2.06 0 0 1 1.528 1.852c.073.994-.611 1.915-1.596 2.147-1.257.296-2.51-.7-2.51-1.997 0-.933.63-1.759 1.524-2a2.449 2.449 0 0 1 1.054-.002M17.46 8.833c.767.165 1.319.455 1.8.948.568.582.891 1.345 1.085 2.567.061.381.071.883.084 4.262l.015 3.83h-3.561l-.012-3.45c-.013-3.412-.014-3.453-.101-3.762-.119-.421-.26-.692-.477-.913-.342-.35-.85-.507-1.47-.455-.992.084-1.501.527-1.791 1.56-.089.318-.09.338-.103 3.67l-.012 3.35H9.36V9h3.4v.78c0 .429.013.78.03.779.017 0 .084-.092.15-.205.155-.264.615-.734.92-.941a4.218 4.218 0 0 1 1.64-.652c.388-.06 1.544-.017 1.96.072M7.12 14.72v5.72H3.56V9h3.56v5.72" fill="#7CD4FD" fill-rule="evenodd"/></svg>