<svg width="15" height="13" fill="none" xmlns="http://www.w3.org/2000/svg"><path d="M13.423.333a1.233 1.233 0 0 0-.241.106c-.082.048-1.613 1.509-4.346 4.149a1461.707 1461.707 0 0 1-4.235 4.081c-.009.004-.524-.536-1.145-1.2-1.288-1.378-1.292-1.382-1.708-1.446-.618-.096-1.221.322-1.326.921-.033.189-.003.397.087.594.055.119 2.301 3.794 2.633 4.308.168.26.337.424.553.537a1.47 1.47 0 0 0 1.316.025c.227-.114.363-.24.647-.595.427-.536 4.244-5.109 7.228-8.66a89.65 89.65 0 0 0 1.322-1.594c.322-.457.227-.971-.218-1.18a.94.94 0 0 0-.567-.046" fill="#0086C9" fill-rule="evenodd"/></svg>