<svg width="20" height="20" fill="none" xmlns="http://www.w3.org/2000/svg"><path d="M3.033.037C2.071.086 1.511.303.938.848c-.616.586-.85 1.177-.905 2.285-.04.796-.04 12.927-.001 13.717.017.33.054.71.083.845a2.894 2.894 0 0 0 2.174 2.188c.487.107 1.557.121 8.294.107 4.77-.011 6.695-.025 6.85-.053.716-.126 1.163-.341 1.629-.785.484-.461.744-.971.875-1.719.052-.295.082-13.138.033-14.183-.027-.586-.05-.797-.115-1.053a2.742 2.742 0 0 0-.793-1.349c-.596-.567-1.119-.76-2.211-.815-.758-.038-13.063-.035-13.818.004m14.35 2.029c.175.063.489.379.549.551.035.101.049.432.059 1.384.012 1.059.006 1.286-.039 1.48-.16.69-.771 1.306-1.455 1.468a2.597 2.597 0 0 1-.994 0c-.671-.158-1.281-.763-1.447-1.432a3.686 3.686 0 0 1-.071-.482c-.025-.337-.104-.533-.292-.725a.98.98 0 0 0-1.386 0c-.183.187-.265.385-.292.707-.052.632-.215 1.013-.598 1.399-.395.398-.845.583-1.417.583-.57 0-1.02-.185-1.417-.582-.379-.378-.552-.778-.597-1.38-.026-.342-.11-.548-.296-.73a.978.978 0 0 0-1.38 0c-.182.178-.268.385-.295.711a4.315 4.315 0 0 1-.069.478c-.148.669-.771 1.293-1.449 1.453a2.597 2.597 0 0 1-.994 0c-.676-.16-1.274-.755-1.453-1.446-.048-.187-.053-.381-.041-1.484.009-.852.026-1.309.052-1.39.047-.143.262-.397.418-.493a.982.982 0 0 1 .291-.099c.104-.017 3.192-.028 7.33-.025 6.164.005 7.168.012 7.283.054M7.204 7.835a3.958 3.958 0 0 0 3.122 1.131 3.883 3.883 0 0 0 2.47-1.131L13 7.634l.204.201a3.958 3.958 0 0 0 3.122 1.131c.594-.052.957-.16 1.65-.493.014-.007.021 1.965.016 4.382-.008 3.543-.019 4.42-.054 4.526-.059.173-.386.499-.557.556-.098.032-.544.046-1.754.055l-1.622.011-.013-2.626c-.013-2.578-.014-2.632-.086-2.89a1.942 1.942 0 0 0-1.393-1.394c-.26-.073-.292-.074-2.513-.074s-2.253.001-2.513.074c-.703.197-1.2.694-1.393 1.394-.072.258-.073.312-.086 2.89l-.013 2.626-1.622-.011c-1.21-.009-1.656-.023-1.754-.055-.171-.057-.498-.383-.557-.556-.035-.106-.046-.983-.054-4.526-.005-2.417.002-4.389.016-4.382.544.261.776.345 1.182.429.996.205 2.137-.01 2.968-.559.242-.16.675-.528.743-.631.028-.043.058-.079.067-.079.009 0 .108.091.22.202M12 15.5V18H8v-5h4v2.5" fill-rule="evenodd" fill="#000"/></svg>