<svg width="22.000000" height="18.000000" viewBox="0 0 22 18" fill="none" xmlns="http://www.w3.org/2000/svg" xmlns:xlink="http://www.w3.org/1999/xlink">
	<desc>
			Created with Pixso.
	</desc>
	<defs/>
	<path id="Icon (Граница)" d="M2.23 12.64C2.26 12.57 2.28 12.5 2.31 12.44C2.41 12.21 2.52 11.99 2.66 11.79C2.8 11.57 2.97 11.36 3.17 11.17C3.36 10.97 3.57 10.8 3.79 10.66C3.99 10.52 4.21 10.41 4.44 10.31C4.67 10.21 4.9 10.14 5.14 10.09C5.42 10.03 5.7 10 6 10C6.29 10 6.57 10.03 6.85 10.09C7.09 10.14 7.32 10.21 7.55 10.31C7.78 10.41 8 10.52 8.2 10.66C8.42 10.8 8.63 10.97 8.82 11.17C9.02 11.36 9.19 11.57 9.33 11.79C9.47 11.99 9.58 12.21 9.68 12.44C9.76 12.62 9.82 12.81 9.87 13L12 13L12 4.19C12 3.57 11.99 3.16 11.97 2.96C11.95 2.76 11.93 2.62 11.89 2.54C11.84 2.44 11.78 2.36 11.7 2.29C11.63 2.21 11.55 2.15 11.45 2.1C11.37 2.06 11.23 2.04 11.03 2.02C10.83 2 10.42 2 9.8 2L4.19 2C3.57 2 3.16 2 2.96 2.02C2.76 2.04 2.62 2.06 2.54 2.1C2.44 2.15 2.36 2.21 2.29 2.29C2.21 2.36 2.15 2.44 2.1 2.54C2.06 2.62 2.04 2.76 2.02 2.96C2 3.16 2 3.57 2 4.19L2 12C2 12.08 2 12.16 2.02 12.24C2.04 12.29 2.05 12.34 2.07 12.38C2.1 12.44 2.12 12.49 2.15 12.53C2.18 12.57 2.2 12.61 2.23 12.64ZM2.09 14.86C2 14.83 1.91 14.8 1.83 14.76C1.65 14.69 1.49 14.6 1.34 14.5C1.17 14.39 1.02 14.26 0.87 14.12C0.73 13.97 0.6 13.82 0.49 13.65C0.39 13.5 0.3 13.34 0.23 13.16C0.16 12.99 0.1 12.81 0.06 12.63C0.02 12.43 0 12.21 0 12L0 4.19C0 3.51 0.01 3.05 0.03 2.8C0.06 2.34 0.16 1.95 0.32 1.63C0.39 1.49 0.48 1.36 0.57 1.23C0.66 1.1 0.76 0.99 0.87 0.87C0.99 0.76 1.1 0.66 1.23 0.57C1.36 0.48 1.49 0.39 1.63 0.32C1.95 0.16 2.34 0.06 2.8 0.03C3.05 0.01 3.51 0 4.19 0L9.8 0C10.48 0 10.94 0.01 11.19 0.03C11.65 0.06 12.04 0.16 12.36 0.32C12.5 0.39 12.63 0.48 12.76 0.57C12.89 0.66 13 0.76 13.12 0.87C13.23 0.99 13.33 1.1 13.42 1.23C13.51 1.36 13.6 1.49 13.67 1.63C13.83 1.95 13.93 2.34 13.96 2.8C13.97 2.85 13.97 2.92 13.98 3L15.33 3C15.49 3 15.6 3 15.67 3C15.81 3.01 15.93 3.02 16.05 3.05C16.15 3.07 16.25 3.11 16.35 3.15C16.44 3.19 16.54 3.23 16.63 3.29C16.73 3.35 16.83 3.43 16.93 3.52C16.98 3.57 17.06 3.64 17.17 3.76L21.23 7.82C21.35 7.93 21.42 8.01 21.47 8.06C21.56 8.16 21.64 8.26 21.7 8.36C21.76 8.45 21.8 8.55 21.84 8.64C21.88 8.74 21.92 8.84 21.94 8.94C21.97 9.06 21.98 9.18 21.99 9.32C21.99 9.39 22 9.5 22 9.66L22 12.5C22 12.79 21.99 12.99 21.98 13.11C21.97 13.36 21.92 13.58 21.84 13.76C21.79 13.88 21.73 14 21.66 14.11C21.59 14.21 21.5 14.32 21.41 14.41C21.32 14.5 21.21 14.59 21.11 14.66C21 14.73 20.88 14.79 20.76 14.84C20.67 14.88 20.57 14.91 20.47 14.93C20.46 15.04 20.44 15.14 20.42 15.24C20.37 15.45 20.3 15.66 20.22 15.86C20.13 16.06 20.03 16.25 19.92 16.43C19.79 16.62 19.64 16.8 19.47 16.97C19.3 17.14 19.12 17.29 18.93 17.42C18.75 17.53 18.56 17.63 18.36 17.72C18.16 17.8 17.95 17.87 17.74 17.92C17.5 17.97 17.25 18 17 18C16.74 18 16.49 17.97 16.25 17.92C16.04 17.87 15.83 17.8 15.63 17.72C15.43 17.63 15.24 17.53 15.06 17.42C14.87 17.29 14.69 17.14 14.52 16.97C14.35 16.8 14.2 16.62 14.07 16.43C13.96 16.25 13.86 16.06 13.77 15.86C13.69 15.66 13.62 15.45 13.57 15.24C13.56 15.16 13.54 15.08 13.53 15L9.87 15C9.82 15.18 9.76 15.37 9.68 15.55C9.58 15.78 9.47 16 9.33 16.2C9.19 16.42 9.02 16.63 8.82 16.82C8.63 17.02 8.42 17.19 8.2 17.33C8 17.47 7.78 17.58 7.55 17.68C7.32 17.78 7.09 17.85 6.85 17.9C6.57 17.96 6.29 18 6 18C5.7 18 5.42 17.96 5.14 17.9C4.9 17.85 4.67 17.78 4.44 17.68C4.21 17.58 3.99 17.47 3.79 17.33C3.57 17.19 3.36 17.02 3.17 16.82C2.97 16.63 2.8 16.42 2.66 16.2C2.52 16 2.41 15.78 2.31 15.55C2.21 15.32 2.14 15.09 2.09 14.86ZM14 12.69C14.02 12.65 14.05 12.61 14.07 12.56C14.2 12.37 14.35 12.19 14.52 12.02C14.69 11.85 14.87 11.7 15.06 11.57C15.24 11.46 15.43 11.36 15.63 11.27C15.83 11.19 16.04 11.12 16.25 11.07C16.49 11.02 16.74 11 17 11C17.25 11 17.5 11.02 17.74 11.07C17.95 11.12 18.16 11.19 18.36 11.27C18.56 11.36 18.75 11.46 18.93 11.57C19.12 11.7 19.3 11.85 19.47 12.02C19.64 12.19 19.79 12.37 19.92 12.56C19.94 12.61 19.97 12.65 19.99 12.69C19.99 12.63 19.92 12.64 19.92 12.56L20 9.66C20 9.53 19.99 9.45 19.99 9.41C19.97 9.39 19.91 9.32 19.82 9.23L15.76 5.17C15.67 5.08 15.61 5.02 15.58 5C15.55 5 15.46 5 15.33 5L14 5L14 12.69ZM6.46 15.94C6.31 15.98 6.15 16 6 16C5.84 16 5.68 15.98 5.53 15.94C5.43 15.92 5.32 15.88 5.22 15.84C5.11 15.79 5.01 15.74 4.91 15.67C4.79 15.6 4.68 15.51 4.58 15.41C4.48 15.31 4.39 15.2 4.32 15.08C4.25 14.98 4.2 14.88 4.15 14.77C4.11 14.67 4.07 14.56 4.05 14.46C4.01 14.31 4 14.15 4 14C4 13.84 4.01 13.68 4.05 13.53C4.07 13.43 4.11 13.32 4.15 13.22C4.2 13.11 4.25 13.01 4.32 12.91C4.39 12.79 4.48 12.68 4.58 12.58C4.68 12.48 4.79 12.39 4.91 12.32C5.01 12.25 5.11 12.2 5.22 12.15C5.32 12.11 5.43 12.07 5.53 12.05C5.68 12.01 5.84 12 6 12C6.15 12 6.31 12.01 6.46 12.05C6.56 12.07 6.67 12.11 6.77 12.15C6.88 12.2 6.98 12.25 7.08 12.32C7.2 12.39 7.31 12.48 7.41 12.58C7.51 12.68 7.6 12.79 7.67 12.91C7.74 13.01 7.79 13.11 7.84 13.22C7.88 13.32 7.92 13.43 7.94 13.53C7.98 13.68 8 13.84 8 14C8 14.15 7.98 14.31 7.94 14.46C7.92 14.56 7.88 14.67 7.84 14.77C7.79 14.88 7.74 14.98 7.67 15.08C7.6 15.2 7.51 15.31 7.41 15.41C7.31 15.51 7.2 15.6 7.08 15.67C6.98 15.74 6.88 15.79 6.77 15.84C6.67 15.88 6.56 15.92 6.46 15.94ZM17.35 15.95C17.23 15.98 17.12 16 17 16C16.87 16 16.76 15.98 16.64 15.95C16.57 15.94 16.49 15.91 16.41 15.88C16.33 15.84 16.25 15.8 16.18 15.76C16.09 15.7 16.01 15.63 15.93 15.56C15.86 15.48 15.79 15.4 15.73 15.31C15.69 15.24 15.65 15.16 15.61 15.08C15.58 15 15.55 14.92 15.54 14.85C15.51 14.73 15.5 14.62 15.5 14.5C15.5 14.37 15.51 14.26 15.54 14.14C15.55 14.07 15.58 13.99 15.61 13.91C15.65 13.83 15.69 13.75 15.73 13.68C15.79 13.59 15.86 13.51 15.93 13.43C16.01 13.36 16.09 13.29 16.18 13.23C16.25 13.19 16.33 13.15 16.41 13.11C16.49 13.08 16.57 13.05 16.64 13.04C16.76 13.01 16.87 13 17 13C17.12 13 17.23 13.01 17.35 13.04C17.42 13.05 17.5 13.08 17.58 13.11C17.66 13.15 17.74 13.19 17.81 13.23C17.9 13.29 17.98 13.36 18.06 13.43C18.13 13.51 18.2 13.59 18.26 13.68C18.3 13.75 18.34 13.83 18.38 13.91C18.41 13.99 18.44 14.07 18.45 14.14C18.48 14.26 18.5 14.37 18.5 14.5C18.5 14.62 18.48 14.73 18.45 14.85C18.44 14.92 18.41 15 18.38 15.08C18.34 15.16 18.3 15.24 18.26 15.31C18.2 15.4 18.13 15.48 18.06 15.56C17.98 15.63 17.9 15.7 17.81 15.76C17.74 15.8 17.66 15.84 17.58 15.88C17.5 15.91 17.42 15.94 17.35 15.95Z" fill="#0086C9" fill-opacity="1.000000" fill-rule="evenodd"/>
</svg>
