<svg width="56" height="56" fill="none" xmlns="http://www.w3.org/2000/svg"><path d="M20.113 19.127c-.904.048-1.085.087-1.523.328-.554.307-.939.704-1.252 1.291-.209.391-.211.426-.241 5.061-.016 2.566.01 5.057.059 5.534.084.827.107.893.5 1.4.241.311.624.658.921.836.417.247.54.382.676.737.208.54.443.887.991 1.464 1.382 1.453 3.83 1.546 5.318.202.484-.438 1.01-1.149 1.149-1.555.058-.172.152-.343.208-.38.055-.038.905-.069 1.887-.07l1.787-.002.064.35c.168.902 1.181 2.068 2.074 2.386 1.749.622 3.568-.105 4.393-1.756a3.49 3.49 0 0 0 .252-.678.624.624 0 0 1 .337-.445c.393-.203.916-.684 1.072-.986.107-.208.135-.743.135-2.623-.001-2.232-.011-2.379-.197-2.688-.107-.179-1.315-1.444-2.683-2.811-2.777-2.773-2.499-2.592-4.112-2.685l-.972-.057-.117-.572c-.143-.705-.319-1.055-.743-1.479-.511-.511-.992-.709-1.946-.802-.918-.089-6.362-.089-8.037 0m8.581 2.147.263.274.049 5.233.048 5.232h-2.148l-.301-.61c-.79-1.604-2.481-2.517-4.225-2.279-1.101.15-2.212.918-2.811 1.943-.169.289-.347.526-.395.526-.154 0-.207-1.048-.209-4.106-.002-4.283.077-5.969.288-6.18.231-.232.986-.272 5.44-.291L28.432 21l.262.274m6.143 4.93 2.216 2.217V31.718l-.555-.555c-.907-.907-1.94-1.246-3.127-1.026-.751.14-1.211.393-1.848 1.018l-.536.526v-7.694h1.634l2.216 2.217M24.059 31.3c.461.291.715.637.858 1.168.216.804-.153 1.764-.859 2.231-.328.217-.481.254-1.051.254-.574 0-.722-.036-1.061-.26-.965-.639-1.213-2.021-.524-2.924.589-.772 1.812-.989 2.637-.469m10.662.886c.666.355.946 1.361.575 2.069-.202.387-.837.745-1.321.745-.436 0-.931-.271-1.192-.653-.157-.231-.21-.442-.21-.84 0-.399.053-.61.21-.84a1.521 1.521 0 0 1 1.938-.481"/></svg>