<svg width="18" height="24" fill="none" xmlns="http://www.w3.org/2000/svg"><path d="M5.385.043C4.501.217 3.941.818 3.747 1.8c-.06.304-.046 1.001.03 1.425.154.865.574 2.361 1.108 3.945.215.636.891 2.565.981 2.797.018.048.006.047-.156-.009-.275-.095-.689-.157-.895-.134-.955.108-1.943 1.146-2.116 2.223-.047.295.004.599.193 1.16l.157.466-.287.097c-1.219.412-1.883 1.241-2.057 2.57-.233 1.78.476 3.725 1.91 5.235.975 1.028 2.323 1.81 3.739 2.171.755.192 1.143.236 2.076.236.881-.001 1.219-.032 1.938-.179 2.527-.516 4.522-1.989 5.768-4.258.539-.981.942-2.272 1.12-3.589.09-.668.099-2.296.015-2.861-.165-1.111-.542-1.875-1.169-2.371a3.334 3.334 0 0 0-1.044-.543c-.147-.046-.268-.094-.268-.108 0-.013.13-.391.289-.841.92-2.606 1.57-4.775 1.749-5.838.145-.865.024-1.584-.357-2.126a1.911 1.911 0 0 0-1.584-.817c-.836-.002-1.678.871-2.601 2.699-.497.983-.933 2.041-1.591 3.855-.21.577-.385 1.054-.389 1.058-.004.005-.112-.299-.24-.675C8.99 4.233 8.122 2.284 7.235 1.036c-.262-.368-.668-.76-.931-.897a.844.844 0 0 0-.465-.127 2.287 2.287 0 0 0-.454.031m.483 1.572c.352.255.748.946 1.174 2.045.193.498 1.898 5.424 1.898 5.484 0 .025-.051.029-.188.013a8.893 8.893 0 0 0-.697-.022c-.407 0-.535.01-.632.05l-.122.05-.036-.095c-.776-2.008-1.538-4.266-1.836-5.435-.259-1.019-.306-1.491-.181-1.821.128-.338.377-.446.62-.269m9.231.511a.572.572 0 0 1 .159.202c.109.222.123.493.046.867-.177.856-.781 2.729-1.774 5.497-.276.768-.381 1.028-.417 1.028-.13.001-1.512-.259-1.523-.287-.007-.017.293-.895.666-1.95.373-1.055.774-2.195.89-2.533.45-1.307.773-2.013 1.149-2.514.271-.36.54-.464.804-.31m-4.929 8.569c1.435.125 2.842.375 3.72.663.499.163 1.029.422 1.224.598.265.237.426.625.55 1.322.061.34.069.483.069 1.182-.001 1.004-.068 1.529-.316 2.459-.281 1.057-.82 2.144-1.461 2.947-.818 1.024-1.969 1.836-3.158 2.226a6.717 6.717 0 0 1-2.233.348c-2.626 0-4.703-1.314-5.853-3.705-.35-.727-.476-1.214-.475-1.845 0-.466.043-.67.213-1.02.131-.267.401-.553.625-.66.2-.096.458-.115.573-.042.56.354 1.73 1.884 2.214 2.892.168.35.193.489.112.618-.089.143-.308.238-.544.234-.263-.003-.477-.107-.725-.353-.19-.189-.298-.324-1.107-1.379-.238-.311-.449-.587-.47-.612-.046-.059-.094-.023-.225.167-.392.57-.283 1.422.286 2.232.196.279.634.733.905.936.559.421 1.111.646 1.636.67.367.016.585-.028.915-.184.622-.296 1.057-.99.991-1.583l-.018-.168.248-.015c.137-.009.259-.01.271-.002.013.007.023.083.023.168 0 .086.021.291.045.456.188 1.249.688 1.96 1.533 2.176.356.091.354.091.416-.136.077-.284.029-.59-.21-1.335-.271-.849-.302-1.29-.135-1.926.226-.86.95-1.855 1.831-2.518.392-.295.611-.408 1.356-.698.586-.229.986-.441 1.207-.64l.108-.097-.043-.207c-.073-.352-.22-.581-.444-.697-.1-.051-.181-.057-.75-.057-2.66-.001-4.138-.3-4.811-.973-.296-.296-.401-.543-.402-.947-.001-.324.117-.474.424-.54.173-.037 1.23-.012 1.885.045m-4.71.865c.246.12.655.521.93.913.602.856 1.284 2.235 1.651 3.337.201.605.199.815-.01 1.033-.205.214-.399.213-.763-.003-1.083-.642-3.158-3.539-3.158-4.409 0-.217.286-.636.564-.827.285-.196.454-.206.786-.044m4.05 2.811c.14.03.397.078.57.106.173.028.326.061.339.072.013.012-.027.06-.09.108a7.93 7.93 0 0 0-.461.424l-.347.338-.197-.517a61.072 61.072 0 0 0-.22-.574c-.021-.051-.014-.055.064-.035.048.012.202.047.342.078" fill="#7CD4FD" fill-rule="evenodd"/></svg>