<svg width="24" height="22" fill="none" xmlns="http://www.w3.org/2000/svg"><path d="M.543.045c.015.024 1.936 2.764 4.268 6.087 2.332 3.324 4.242 6.063 4.245 6.088.002.025-1.86 2.168-4.139 4.762L.643 21.85.512 22l1.474-.002 1.474-.002 3.455-3.938c1.9-2.166 3.466-3.938 3.48-3.937.014 0 1.267 1.773 2.785 3.939l2.76 3.939h3.772c2.978.001 3.766-.009 3.742-.048-.016-.027-2.016-2.881-4.444-6.342l-4.414-6.292 1.377-1.569L20.055 3.1 22.761.02 21.314.009C20.037 0 19.859.006 19.797.063c-.039.035-1.516 1.708-3.282 3.718-1.766 2.009-3.223 3.646-3.238 3.637a410.42 410.42 0 0 1-2.622-3.717L8.06.001 4.288 0C1.515 0 .523.012.543.045M12.955 11l6.239 8.74-.983.011c-.541.006-.986.006-.99 0l-6.234-8.737A1950.54 1950.54 0 0 1 4.76 2.263c0-.013.44-.02.978-.014l.978.011L12.955 11" fill="#7CD4FD" fill-rule="evenodd"/></svg>